/* XPM */
static char * C:\Users\gabha\OneDrive\Bureau\tileset\coin5_xpm[] = {
"32 32 6 1",
" 	c None",
".	c #6C3B4F",
"+	c #FBFCAA",
"@	c #F29546",
"#	c #FFCE00",
"$	c #B8614E",
"                                ",
"                                ",
"             ......             ",
"            .++@@@@.            ",
"           .+###@@@@.           ",
"          .+#####@@@@.          ",
"         .+#@@@###@@@@.         ",
"        .+#@###@###@@@@.        ",
"        .##@###@###@@@@.        ",
"       .+#@#####@###@@@@.       ",
"       .##@#+++#@###@@@@.       ",
"       .##@#####@###@@@@.       ",
"      .+#####@#######@@@$.      ",
"      .#######@######@@@$.      ",
"      .######+#######@@@$.      ",
"      .#####@########@@@$.      ",
"      .####@##+@#####@@$$.      ",
"      .####+#@#+#####@@$$.      ",
"      .#####+########@@$$.      ",
"      .@#####+#######@@$$.      ",
"       .##+#####+###@@$$.       ",
"       .##+#@@@#+###@@$$.       ",
"       .@#+#####+###@@$$.       ",
"        .##+###+###@@$$.        ",
"        .@#+###+###@@$$.        ",
"         .@#+++###@@$$.         ",
"          .@#####@@$$.          ",
"           .@###@@$$.           ",
"            .@#@@$$.            ",
"             ......             ",
"                                ",
"                                "};
