/* XPM */
static char * C:\Users\gabha\OneDrive\Bureau\tileset\exit2_xpm[] = {
"32 32 10 1",
" 	c #101010",
".	c #797979",
"+	c #000000",
"@	c #404040",
"#	c #696969",
"$	c #717171",
"%	c #5D5D5D",
"&	c #555555",
"*	c #484848",
"=	c #383838",
"  ......   .++++++++@    ..@..  ",
"  ..#@.#++++$#$%%$#&++++..@.@@#@",
" ..#@.++$#$+#$*@@*&&+$$#+++###@#",
" #.@++#&#$&&+@&&&&@+##&&&+&+##@@",
" #@+#&+#@*@&+&&&&&&+$@&@+#&*+@#@",
" @+$#&+#*&*&&+&&&&+&&*&*+$&*&+@@",
"  +#&*&+#@#*++++++++*#@+$#*&&+@ ",
" ++&&&&*++++        ++++#$&&&++ ",
" +#++&@++              ++@&++&+ ",
"+$#&@+++                +++$&&&+",
"+#$*&@+                  +@&**&+",
"+#$*&@+                  +@&**&+",
"+++++++                  +++++++",
"+##$&+                    +$#**+",
"+$&*&+                    +#$&&+",
"+@@&@+                    +**&&+",
"++++++                    ++++++",
"+&**&+                    +$##$+",
"+&&&&+                    +#$&*+",
"+*&&@+                    +$@@&+",
"++++++                    ++++++",
"+##$&+                    +#&**+",
"+$&*&+                    +$&&&+",
"+@@&@+                    +**&&+",
"++++++                    ++++++",
"+&**&                     +$##$+",
"+&&&&                     +#$&*+",
"+*&&@                     +$@@&+",
"+++++  =@@@@=@@@=@@@@@@@@ ++++++",
"+##$&  &&*&*@&@&&****&&&& +#&**+",
"+$&*& %&%&&&&&&&%%&&&%&%&&+$&&&+",
"+@@&@+#%%%&#&#%###%%##%&%#+**&&+"};
