/* XPM */
static char * C:\Users\gabha\OneDrive\Bureau\tileset\exit_xpm[] = {
"32 32 20 1",
" 	c #101010",
".	c #797979",
"+	c #000000",
"@	c #404040",
"#	c #696969",
"$	c #717171",
"%	c #5D5D5D",
"&	c #555555",
"*	c #484848",
"=	c #794800",
"-	c #653000",
";	c #794814",
">	c #502C00",
",	c #9D7910",
"'	c #202020",
")	c #303030",
"!	c #383838",
"~	c #818181",
"{	c #919191",
"]	c #BABABA",
"  ......   .++++++++@    ..@..  ",
"  ..#@.#++++$#$%%$#&++++..@.@@#@",
" ..#@.++$#$+#$*@@*&&+$$#+++###@#",
" #.@++#&#$&&+@&&&&@+##&&&+&+##@@",
" #@+#&+#@*@&+&&&&&&+$@&@+#&*+@#@",
" @+$#&+#*&*&&+&&&&+&&*&*+$&*&+@@",
"  +#&*&+#@#*++++++++*#@+$#*&&+@ ",
" ++&&&&*++++==-===-=++++#$&&&++ ",
" +#++&@++-;==-===;--===++@&++&+ ",
"+$#&@+++===>>>>>>>>>>-==+++$&&&+",
"+#$*&@+-=-->+++,>+++,=-=;+@&**&+",
"+#$*&@+;==->+++,>+++,=-==+@&**&+",
"+++++++=-=->,,,,>,,,,;=;=+++++++",
"+##$&+==-=;>>>>>>>>>,--==-+$#**+",
"+$&*&+-=-=;>+++,>+++,;-;=-+#$&&+",
"+@@&@+==--;>+++,>+++,;-;=-+**&&+",
"++++++==-=;>,,,,,,,,,;-;=-++++++",
"+&**&+'';;==;-==-==-=;-;==+$##$+",
"+&&&&+'')@@@*&#*-==-=-;===+#$&*+",
"+*&&@+''@!@@*&~&&*=---{-==+$@@&+",
"++++++'!)!@@*&#*-==--{].==++++++",
"+##$&+''====;-==--=--+.+==+#&**+",
"+$&*&+>==-==;===---;-+++-=+$&&&+",
"+@@&@+;>==--;--=-=-;=;-=-=+**&&+",
"++++++-==-==;-==--=-=--->=++++++",
"+&**&+''--=;=-=-=-;;--==-=+$##$+",
"+&&&&+'')@@@*&#*-=-;-;=-==+#$&*+",
"+*&&@+''@!@@*&~&&*-=-==-==+$@@&+",
"++++++'!)!@@*&#*=;=--==--=++++++",
"+##$&+''-----=-==;=--==-==+#&**+",
"+$&*&+-==-=-=--==;=--==-==+$&&&+",
"+@@&@+==--=-=--==;=-===;-=+**&&+"};
