/* XPM */
static char * C:\Users\gabha\OneDrive\Bureau\tileset\floor5_xpm[] = {
"32 32 193 2",
"  	c #5BA0DC",
". 	c #5CB2DA",
"+ 	c #6AB2E4",
"@ 	c #6EB8E6",
"# 	c #72C7E6",
"$ 	c #74C9E8",
"% 	c #6AB4E4",
"& 	c #66AFE2",
"* 	c #6CB5E5",
"= 	c #5EA4DD",
"- 	c #5CA1DC",
"; 	c #66B3E0",
"> 	c #66AEE1",
", 	c #67AEE1",
"' 	c #66BBDF",
") 	c #5AAFD9",
"! 	c #5BA8DA",
"~ 	c #67B5E1",
"{ 	c #5CB1DA",
"] 	c #5EA3DD",
"^ 	c #69B1E2",
"/ 	c #68B0E2",
"( 	c #5BA8DB",
"_ 	c #5BA0DB",
": 	c #5A9FDB",
"< 	c #66ADE1",
"[ 	c #66ACE1",
"} 	c #5DAADB",
"| 	c #60AEDD",
"1 	c #64BADF",
"2 	c #72BDE8",
"3 	c #6CB6E5",
"4 	c #6BB5E5",
"5 	c #67B0E2",
"6 	c #62A9DF",
"7 	c #69B1E3",
"8 	c #67B6E1",
"9 	c #67ADE2",
"0 	c #68AFE2",
"a 	c #5FA5DE",
"b 	c #61B6DD",
"c 	c #61A9DF",
"d 	c #6BB2E4",
"e 	c #69B0E3",
"f 	c #67AFE2",
"g 	c #67BCDF",
"h 	c #5AA7DA",
"i 	c #5CA2DC",
"j 	c #5FA6DE",
"k 	c #63ABE0",
"l 	c #67BDE1",
"m 	c #72C8E7",
"n 	c #68B2E3",
"o 	c #65ADE1",
"p 	c #6CB4E4",
"q 	c #69BEE1",
"r 	c #5BA1DC",
"s 	c #5BB0D9",
"t 	c #66BADF",
"u 	c #6AB1E3",
"v 	c #6FC5E5",
"w 	c #70BAE7",
"x 	c #70B9E7",
"y 	c #6EB7E5",
"z 	c #60A6DE",
"A 	c #5DA3DD",
"B 	c #5AA0DB",
"C 	c #6BB3E4",
"D 	c #6DB6E5",
"E 	c #6FB8E6",
"F 	c #6EC3E4",
"G 	c #6CC2E3",
"H 	c #5FADDD",
"I 	c #5DB2DA",
"J 	c #5EB3DB",
"K 	c #60AEDE",
"L 	c #68B5E1",
"M 	c #6AB3E4",
"N 	c #64ACE1",
"O 	c #68B8E2",
"P 	c #6BC1E3",
"Q 	c #6AC0E3",
"R 	c #66BCE0",
"S 	c #66B4E0",
"T 	c #67AEE2",
"U 	c #60B5DC",
"V 	c #5EA5DD",
"W 	c #63AAE0",
"X 	c #68B1E3",
"Y 	c #6FBAE6",
"Z 	c #5BB0DA",
"` 	c #5AB0D9",
" .	c #69B3E4",
"..	c #6DC2E3",
"+.	c #5BB1DA",
"@.	c #5CA9DB",
"#.	c #67BBE0",
"$.	c #73BEE9",
"%.	c #71C7E6",
"&.	c #6BC0E2",
"*.	c #67BBDF",
"=.	c #6ABFE2",
"-.	c #65AEE1",
";.	c #6CB3E4",
">.	c #5FB5DC",
",.	c #5DB2DB",
"'.	c #61A8DF",
").	c #63B8DE",
"!.	c #6BBAE3",
"~.	c #64ADE1",
"{.	c #69B8E2",
"].	c #68BDE1",
"^.	c #66AEE2",
"/.	c #6AB9E2",
"(.	c #6BB9E3",
"_.	c #60A7DF",
":.	c #5DA2DC",
"<.	c #67BCE0",
"[.	c #69B7E2",
"}.	c #64B3E0",
"|.	c #5CAADB",
"1.	c #66B5E0",
"2.	c #5EACDC",
"3.	c #66B4E1",
"4.	c #69BDE1",
"5.	c #6EB7E6",
"6.	c #71C6E6",
"7.	c #60B6DD",
"8.	c #67ADE1",
"9.	c #68AEE2",
"0.	c #6BC1E2",
"a.	c #6EC4E4",
"b.	c #5DABDC",
"c.	c #69B0E2",
"d.	c #62AAE0",
"e.	c #73C8E7",
"f.	c #5AA8DA",
"g.	c #5DA3DC",
"h.	c #6AB2E3",
"i.	c #60B5DD",
"j.	c #75CAE8",
"k.	c #74BFE9",
"l.	c #65B4E1",
"m.	c #63B9DF",
"n.	c #69BFE2",
"o.	c #72C7E7",
"p.	c #72BCE8",
"q.	c #66B5E1",
"r.	c #6BB4E4",
"s.	c #6FB9E6",
"t.	c #70C6E5",
"u.	c #5FB4DC",
"v.	c #72C3E7",
"w.	c #74C0E9",
"x.	c #6DBBE4",
"y.	c #5EABDC",
"z.	c #6DB7E5",
"A.	c #5DB3DB",
"B.	c #67B4E0",
"C.	c #67B4E1",
"D.	c #5BA9DB",
"E.	c #6DC3E3",
"F.	c #70BFE6",
"G.	c #63B9DE",
"H.	c #71BCE8",
"I.	c #60A7DE",
"J.	c #6DBCE4",
"K.	c #68BCE0",
"L.	c #67B1E3",
"M.	c #71BBE8",
"N.	c #68B6E1",
"O.	c #68BDE0",
"P.	c #61A7DF",
"Q.	c #69BFE1",
"R.	c #67BDE0",
"S.	c #68B7E1",
"T.	c #62B7DE",
"U.	c #63B2DF",
"V.	c #68BEE2",
"W.	c #69BEE2",
"X.	c #73C7E7",
"Y.	c #71BAE7",
"Z.	c #73C3E8",
"`.	c #71C1E7",
" +	c #73BFE9",
".+	c #73C9E7",
"++	c #74CAE8",
"@+	c #6CB7E5",
"#+	c #6BB6E5",
"$+	c #67B7E2",
"%+	c #67B5E0",
"&+	c #67BCE1",
"*+	c #70C5E5",
"  . + @ # $ % & * = - ; > , > ' ' ) ! ~ { ] = = ^ / - ( _ : < [ ",
"( } | 1 2 3 4 5 6 7 8 < : : : ) < < 9 0 a b 6 c d e f g ' < [ h ",
"  i j k l m n o p q -   - r s t : _ i u * v w x y z A   B ) ) [ ",
"> r ] C D E F G H I { J K H L s B   i M N O P Q R * = r _ h h S ",
"_ T 0 ] j z U V / f A W X Y j Z `   / C 1  .3 4 5 ..J +.! : : ) ",
"@.T T #.{ I i -     7 @ $.%.&.f ' *.L =.k 5  .n -.;.q T > : _ Z ",
"&.>.,.T   Z   _ B _ / '.1 ).=   B _ r 7 !.k ~.N * a .   : < T {.",
"].^.j T < ) ) < < ' s { ] A r B : < , { q /.(.M = I Z ! : _ / W ",
"% X _.T < < < ) h < : B s ` ) ) ' ' ) Z r i :.. <.  _ : ) s [.}.",
"N W =   < : h : : < < : : < ' < : : : B s Z ( , , < [ : : ' 0 C ",
"[./ 9 [ : : ) ) : : : < [ ) Z r T , < < < < ' ' : : : < < ) Z |.",
"_ 1.: : : ) : : ) h ; h h r 2.K j i , : : : : ) < < [ h h : : B ",
": ' ' ; ; h ) ) h h ' ' s ,.W X 3.M T : : h ) h h ) ' ' ) ) : : ",
"; h : : : t : : : < : : , 4.5.$.6.7.~ ; ) ) h h : : B < _ ! h [ ",
"' < : : : ' < 8.9 T f , < 9.0.a.D 7   : [ : ) : : < T 9 T f <.g ",
"  [ [ : [ #.{ b.H * _.A Z Z i J A T : : < ' t [ , T 0 c.= = A @.",
"- _ < < ~ 2.'.d.^.e.l b i B B s _ : < < : : h f.  g.h.'.6 c i.J ",
"b.Z ) *.,.).X X  .j.k.5.0 B : ) ' ' : < : : : s { u * l.8 R m.| ",
"= r , , = N Q n.o.k.% k g.> ' S ) h h < : : ` ( } U F p.4 % q.c ",
"e f , < 9.r.s.@ a.t.1 u.r ' h : : : ) ' S S   :.= _.o v.w.4 5 x.",
"J - 8.B _ { J J y.= ^ f ' : : : : : < [ ' #.u '.'.'.z.w o.# v b ",
"A.I { B.h h ! ! _ _ _ : < ' ' ' B T C.D.  A E.%.F.x.b G.~.N 6 u ",
"=.p M / , : : : h ' < < [ : : h ~ J 7.U ,.J 1 % H.* a H I.z V = ",
"G.X ^.j T < < [ [ ; t t h h h f.,.J.H.Y z J ;.5.k a / / K.0 / 7 ",
"}.% L._.f : : : : ) ) : [ < h s b.N % M.C N./ 7 / f T     Z Z [.",
"r.1 W = T : : h ( i i i r 8.< ' K.&.5.D 7 9 ! s s T - i - ( Z i ",
"i 7 O.#.t ) ) Z V c d.d.P.Q.R.    { 4.S.#.) : B r 4.i.T.b ,.(   ",
"B 8.> h : < _ b.U.V.W.X.6.N _.g._ B _ ' ' < : r a k Y.Z.`.c i B ",
"< < < Z r - 0 h.s. +.+++%  .& U Z S S ) : < > 0 y 2 4 @+P @ / > ",
"[ _ Z { ] = = u 6 ^.8 6.p. +H.0.f : : h : : _ 7 s.4 #+@+Q m.,.< ",
"' ( g.a b 6 6 !.U U U 7.).o z.Q.  : : < ' ' 8./ c ^.l $+o j D.) ",
"%+f h.6 o &+*+F _.] i r ,.J N.~ B : : , ( D.{ K.A.u.H j = r B : "};
