/* XPM */
static char * C:\Users\gabha\OneDrive\Bureau\tileset\floor2_xpm[] = {
"32 32 191 2",
"  	c #5BA0DB",
". 	c #67AEE2",
"+ 	c #6ABFE1",
"@ 	c #6CB5E5",
"# 	c #6FB8E6",
"$ 	c #67BCE1",
"% 	c #66BCE0",
"& 	c #6EB7E5",
"* 	c #60A7DF",
"= 	c #5EA3DD",
"- 	c #68AEE2",
"; 	c #67AFE2",
"> 	c #68B7E1",
", 	c #69B1E3",
"' 	c #68B0E2",
") 	c #5AAFD9",
"! 	c #66BBDF",
"~ 	c #5BA8DA",
"{ 	c #5BA8DB",
"] 	c #5BB0DA",
"^ 	c #5CA1DC",
"/ 	c #69B1E2",
"( 	c #5FA6DE",
"_ 	c #5EABDC",
": 	c #66ACE1",
"< 	c #5A9FDB",
"[ 	c #5AA7DA",
"} 	c #5DAADB",
"| 	c #6AB8E2",
"1 	c #61B6DD",
"2 	c #62A9DF",
"3 	c #6AB3E4",
"4 	c #60AEDE",
"5 	c #63AAE0",
"6 	c #65ADE1",
"7 	c #63ABE0",
"8 	c #67BCE0",
"9 	c #68AFE2",
"0 	c #6CB4E5",
"a 	c #70BAE7",
"b 	c #71BBE7",
"c 	c #71BCE8",
"d 	c #6FC4E4",
"e 	c #6ABFE2",
"f 	c #5BA1DC",
"g 	c #5CA2DC",
"h 	c #5EB3DB",
"i 	c #6AB2E3",
"j 	c #6DB6E5",
"k 	c #66AEE2",
"l 	c #67B1E3",
"m 	c #69B2E3",
"n 	c #6BB5E5",
"o 	c #71BBE8",
"p 	c #5BB1DA",
"q 	c #66ADE1",
"r 	c #67BBDF",
"s 	c #6BB6E5",
"t 	c #6CB7E5",
"u 	c #6AB4E4",
"v 	c #68BCE0",
"w 	c #5BB0D9",
"x 	c #67ADE2",
"y 	c #5EB4DC",
"z 	c #65BBE0",
"A 	c #6BBBE4",
"B 	c #6AC0E3",
"C 	c #6BC1E3",
"D 	c #73C2E8",
"E 	c #66B5E1",
"F 	c #60AEDD",
"G 	c #5DB2DB",
"H 	c #6EC3E4",
"I 	c #69BFE2",
"J 	c #64ACE1",
"K 	c #66B5E0",
"L 	c #67AEE1",
"M 	c #68BEE0",
"N 	c #6DB7E5",
"O 	c #68B2E3",
"P 	c #69B2E4",
"Q 	c #69B3E4",
"R 	c #5DA3DC",
"S 	c #67BDE1",
"T 	c #68BDE1",
"U 	c #61AFDE",
"V 	c #5AA0DB",
"W 	c #69B7E2",
"X 	c #5EA5DD",
"Y 	c #6DB5E5",
"Z 	c #6BB4E4",
"` 	c #67BDE0",
" .	c #67BBE0",
"..	c #67ADE1",
"+.	c #69BEE1",
"@.	c #5DABDC",
"#.	c #6DC2E3",
"$.	c #61A7DF",
"%.	c #5DA3DD",
"&.	c #5BA0DC",
"*.	c #64BADF",
"=.	c #61A8DF",
"-.	c #6EB8E6",
";.	c #5EA4DD",
">.	c #5CB1DA",
",.	c #64ADE1",
"'.	c #6BB3E4",
").	c #6BC1E2",
"!.	c #68B6E1",
"~.	c #63B2DF",
"{.	c #68B1E3",
"].	c #6FB9E6",
"^.	c #6AB3E3",
"/.	c #68BDE0",
"(.	c #63B8DE",
"_.	c #66BBE0",
":.	c #60B5DC",
"<.	c #6EB7E6",
"[.	c #63B9DE",
"}.	c #5FB4DC",
"|.	c #5DA2DC",
"1.	c #60A6DE",
"2.	c #6EC4E4",
"3.	c #73C4E8",
"4.	c #5FA5DE",
"5.	c #6ABEE1",
"6.	c #69B7E1",
"7.	c #66AEE1",
"8.	c #6CB5E4",
"9.	c #62B7DD",
"0.	c #5BA9DB",
"a.	c #5AA8DA",
"b.	c #6CB4E4",
"c.	c #6CC1E3",
"d.	c #6CB3E4",
"e.	c #67B0E2",
"f.	c #69B9E3",
"g.	c #68B8E2",
"h.	c #5CAADB",
"i.	c #65B4E0",
"j.	c #70C0E6",
"k.	c #6EBEE5",
"l.	c #66B4E0",
"m.	c #5DB2DA",
"n.	c #6BBAE3",
"o.	c #6CC2E4",
"p.	c #69B0E3",
"q.	c #72BDE8",
"r.	c #6CB6E5",
"s.	c #66BADF",
"t.	c #5AB0D9",
"u.	c #70BFE6",
"v.	c #6CBAE4",
"w.	c #71C6E6",
"x.	c #73BDE8",
"y.	c #75C1EA",
"z.	c #74BFE9",
"A.	c #6AB1E3",
"B.	c #70BBE7",
"C.	c #6BC0E2",
"D.	c #67B5E1",
"E.	c #62B8DE",
"F.	c #61A9DF",
"G.	c #5CA9DB",
"H.	c #60B6DD",
"I.	c #68B7E2",
"J.	c #67B6E1",
"K.	c #66B3E0",
"L.	c #67BCDF",
"M.	c #64B3E0",
"N.	c #6CC2E3",
"O.	c #69BFE1",
"P.	c #5CB2DA",
"Q.	c #73BFE9",
"R.	c #6ABEE2",
"S.	c #63B1DF",
"T.	c #5DB3DB",
"U.	c #6AB9E2",
"V.	c #69BDE1",
"W.	c #6DC1E3",
"X.	c #72BCE8",
"Y.	c #74BEE9",
"Z.	c #73BEE8",
"`.	c #67B4E1",
" +	c #61B0DE",
".+	c #64ABE0",
"++	c #6CC1E4",
"@+	c #62B1DF",
"#+	c #6CC0E3",
"$+	c #73C9E7",
"%+	c #61B7DD",
"  . + @ # $ % & * = - ; > , ' . ) ) ! ~ { ] ^ ' / ( ( ( _ ; : < ",
"[ { } | 1 2 2 * 3 3 3 4 5 6 7 , 8 : : < <   ] 9 0 a b c d e f < ",
"<   f g , h h i j k 8 l m n o 1 p < q q q : r , 6 n s t u 7 v w ",
"[ < q x x . 9 y z A B C B D E F ] < q < < < ~ G H I n t n J > K ",
"! L   < < <   M N O P Q c J * R w ! L   < ) < f i 7 S B T U g V ",
"v W 9 f ) ) ) f X @ j Y Z , `  ...v +.@.] V < V x / Z #.$.%.&.&.",
"U *.#.h &.< ) V &.9 g g f ] )   g =.-.N ;.{   L   &.^ >.; . L 9 ",
",.B c '.^ < ! ! q < ) ) ) < <   / -.u c ).v !._ %.^ ] ] { . f ;.",
"~.{.].^.. q < < ! [ < < < ) ) ! /.(.T _.:.= =.<.[.}.|.g R /.>._ ",
"( =.1.'   < < [ q q < < q q q ) f ;.* 1.%.h 2.3.o 0 4.( '.3 5.;.",
"6.!..   V <   w w   7.: < < ) ! q . ; ; . ' N T % 2 8.N ,.J 9.e ",
", ^ ~ V   g h ;.;.+.@.0.a.[ < [ [ q < < < f X b.c.d.7 e.f.g.6 =.",
", ; r ! h.U i.*.*.j.k.}.] ) ) < q l.< < < V { m._ n.d I o.C $ 2 ",
";.0.~   p.J B Q q.r.u N 9 q s.: < s.s.[ [ ) t.{ } 1.-.O n u u.v.",
"/.] V   ' N w.o x.y.z.<.9 q q ! ! < < : < < < w . A.0 # B.a N C.",
"D...< : x ;.1 E.j.f.l =.g t.)   ! < < q q : s.! . 9 A.=.2 F.1.;.",
"] q q q V { G.%.3 F.H.G ] &.g = G . q < < < < [ ~ . g %.;.;.%.>.",
"[ [ s.) ) ) )   . ;  ...V g =.-.#.h 8 < < < < < ! ! &.f G.0.] ] ",
"< q q < < < < s.s.) < < L , -.B I.H.J.[ < < < ) [ K.s.)     V [ ",
"l.q : : q q q q q ) ) ) ! %.(.I.k ( . ! ! [ [ < < < q q [ < : : ",
"w ! < < < < ) ) ) l.q q < ] ;.* ( ' ..q : s.) < < q : : q ! ) t.",
"= G  .) [ [ [ [ [ < < q q q 8 p 8 ..< [ [ q q s.s.[ [ ) ) < ..g ",
"-.#., . < < < < q l.! : < < < q [ [ ) ) w ] ] 8 L V < < [ V g Z ",
"u T * ; q q : : : : K.) w a.[ [ l.! l.&.f - v g ^ . L : : L., J ",
"I.E ( . V < < < < < w v , %.f [ ) [ ... , i n.3 , ' f   <   /.(.",
"* ( G . &.&.&.  [ ~ g =.<.N , x s.r  ., '.7 ,.M.N.}.g &.< < 0.O.",
"; ; .  .>.m.P.>.] &.;.,.Q.c H.>.  ../.R.S.S I O # =.T.] t.) w { ",
"q . g = U.1.1.X } G.V.W.T _.( f V &.' '.d I r.n e.Y , ; ~ [ < < ",
"7.. = * [.# -.@ i ' 9 h H.( g   ! 8 h.F 2.X.Y.Z.a 2 ;.f 7.! q q ",
"&.g ( [.S Q X.6 =.= . `.8 . L q )   g X  +6 B.a .+1.%.&.V ) s.s.",
"] m.F ,.Q ++z.e.@+h >.) ) ! q < ) V . ' A.#+#.F.1.;.^ w [ < < l.",
"L !.1.J {.z.$+% %+;.^ < V r ! [ [ < L f g _ W h G P.>.{   < < q "};
