/* XPM */
static char * C:\Users\gabha\OneDrive\Bureau\tileset\floor7_xpm[] = {
"32 32 191 2",
"  	c #66BADF",
". 	c #5BA1DC",
"+ 	c #5FA6DE",
"@ 	c #6FC4E4",
"# 	c #71C7E6",
"$ 	c #71BBE7",
"% 	c #70B9E7",
"& 	c #61A9DF",
"* 	c #5DA3DC",
"= 	c #67AEE1",
"- 	c #5BA8DA",
"; 	c #5A9FDB",
"> 	c #66ACE1",
", 	c #66ADE1",
"' 	c #66BBDF",
") 	c #67BCE0",
"! 	c #69BFE1",
"~ 	c #6DBDE4",
"{ 	c #65B4E1",
"] 	c #63B8DE",
"^ 	c #6BB4E4",
"/ 	c #60A6DE",
"( 	c #60A7DF",
"_ 	c #6CB5E5",
": 	c #6DBCE4",
"< 	c #61A8DF",
"[ 	c #5FA5DE",
"} 	c #5BA0DC",
"| 	c #5DAADB",
"1 	c #63B9DF",
"2 	c #6AB4E4",
"3 	c #6CB7E5",
"4 	c #74BFE9",
"5 	c #6BB5E5",
"6 	c #65ADE1",
"7 	c #5EA4DD",
"8 	c #5AAFD9",
"9 	c #61A7DF",
"0 	c #71BCE8",
"a 	c #73BFE9",
"b 	c #72BCE8",
"c 	c #71C6E6",
"d 	c #67AFE2",
"e 	c #66AEE2",
"f 	c #62A9DF",
"g 	c #69B0E3",
"h 	c #69BEE1",
"i 	c #68B0E2",
"j 	c #67AEE2",
"k 	c #67B5E0",
"l 	c #66B3E0",
"m 	c #5DA3DD",
"n 	c #64ACE1",
"o 	c #6BC1E3",
"p 	c #6CC2E4",
"q 	c #72BDE8",
"r 	c #64ABE0",
"s 	c #5DB2DB",
"t 	c #66AEE1",
"u 	c #6AB2E4",
"v 	c #66AFE2",
"w 	c #69B3E4",
"x 	c #74CAE8",
"y 	c #6FB8E6",
"z 	c #6AB1E3",
"A 	c #68AFE2",
"B 	c #5CA1DC",
"C 	c #5BB0DA",
"D 	c #5BB0D9",
"E 	c #68B1E3",
"F 	c #73BDE8",
"G 	c #6DC2E3",
"H 	c #6AB8E2",
"I 	c #5AA7DA",
"J 	c #5AB0D9",
"K 	c #67ADE1",
"L 	c #67B1E3",
"M 	c #73C3E7",
"N 	c #69BEE2",
"O 	c #68BEE2",
"P 	c #63B9DE",
"Q 	c #5BA0DB",
"R 	c #5AA0DB",
"S 	c #69B0E2",
"T 	c #60B5DD",
"U 	c #5EA3DD",
"V 	c #68BDE0",
"W 	c #5CA2DC",
"X 	c #6BC1E2",
"Y 	c #6DB6E5",
"Z 	c #62AAE0",
"` 	c #5EA5DD",
" .	c #5EB3DB",
"..	c #67BBE0",
"+.	c #68BCE0",
"@.	c #69B1E3",
"#.	c #6EC3E4",
"$.	c #64BADF",
"%.	c #61AFDE",
"&.	c #68BDE1",
"*.	c #73C3E8",
"=.	c #6EC4E4",
"-.	c #5DA2DC",
";.	c #63ABE0",
">.	c #6CC1E3",
",.	c #63AAE0",
"'.	c #66B4E0",
").	c #6DC3E3",
"!.	c #60A7DE",
"~.	c #6AB2E3",
"{.	c #6CC2E3",
"].	c #71C1E7",
"^.	c #60B5DC",
"/.	c #60B6DD",
"(.	c #5CB2DA",
"_.	c #60AEDD",
":.	c #6AB3E3",
"<.	c #64ADE1",
"[.	c #6CBBE4",
"}.	c #5BB1DA",
"|.	c #69B1E2",
"1.	c #6FB9E6",
"2.	c #70BAE7",
"3.	c #61B6DD",
"4.	c #67BCDF",
"5.	c #5CA9DB",
"6.	c #5EABDC",
"7.	c #62B1DF",
"8.	c #67B0E2",
"9.	c #6CB6E5",
"0.	c #69BFE2",
"a.	c #5BA8DB",
"b.	c #5AA8DA",
"c.	c #6BBBE3",
"d.	c #68B5E1",
"e.	c #61B7DD",
"f.	c #66BCE0",
"g.	c #74C4E8",
"h.	c #72C1E7",
"i.	c #63B2DF",
"j.	c #6AC0E3",
"k.	c #6CBCE4",
"l.	c #69B9E3",
"m.	c #6BB9E3",
"n.	c #65BBE0",
"o.	c #6BBBE4",
"p.	c #6CBCE5",
"q.	c #5DABDC",
"r.	c #6BB3E4",
"s.	c #5DB3DB",
"t.	c #67B4E1",
"u.	c #6BC0E2",
"v.	c #67B6E1",
"w.	c #67B5E1",
"x.	c #5BA9DB",
"y.	c #6EB8E6",
"z.	c #6AB9E3",
"A.	c #6FC5E5",
"B.	c #63B1DF",
"C.	c #5CB1DA",
"D.	c #6AB8E3",
"E.	c #6BBFE2",
"F.	c #6ABEE2",
"G.	c #69B6E2",
"H.	c #64B9DF",
"I.	c #6BBAE3",
"J.	c #5FADDD",
"K.	c #60AEDE",
"L.	c #68B2E3",
"M.	c #67BBDF",
"N.	c #71BBE8",
"O.	c #73BEE9",
"P.	c #6EB7E6",
"Q.	c #69B8E2",
"R.	c #62B7DE",
"S.	c #5DB2DA",
"T.	c #5FB5DC",
"U.	c #66B4E1",
"V.	c #5EB3DC",
"W.	c #5FB4DC",
"X.	c #66B5E1",
"Y.	c #64B3E0",
"Z.	c #6EB7E5",
"`.	c #70C6E6",
" +	c #6CB4E4",
".+	c #67BDE1",
"++	c #6CB4E5",
"@+	c #67ADE2",
"#+	c #70BBE7",
"$+	c #5CAADB",
"%+	c #6EC2E4",
"  . + @ # $ % & * = - ; > , ' ) ! ~ { ] ^ / / / ( _ : < [ * } , ",
"- | 1 2 3 4 5 6 7 - , , , ; 8 . 9 0 a b c d e f + g h h i j k l ",
", m n o p 5 q r s t , ; ; 8 8 . u v w 2 x a a y z A B . C D ; ; ",
", A & E F c G H ) 8 8 I - - J K * ( n L M N O P m Q , ; I - - R ",
"} } S ^ f T m . R , , . m U V C } W 7 X Y Z & ` C 8 ' I . m  .W ",
"W } ....+.B } Q Q Q } @.G #.^ V ' l ..j A W W } R 8 > j @.Y $.%.",
"h ..} } ) } B m 7 W W X &.2 n m Q ; ; I , , ; ; ; ' ; B ( L *.=.",
"7 W -.* V +.[ ;.=.>.h / e E ,.m R ; ' ' I '., > ' 8 I . + e E ).",
"7 ` / !.~.~.{.].2 n @.s ^./. .C 8 ' ' ; ; ; 8 8 ; > ; D (._.%.:.",
"z f n <.;.[.f v E ;.i j . }.j , , ; ; 8 8 - Q Q = = > > D B i |.",
"< 1.b q 2.1 3.< < ` . ; '   ; ; ; , , t d h ! @.@.7 W Q ' 4.5.6.",
"7.8.4 9.0.6 (  .| a.b.l ; I I ; ; ; ; d + n ) n n 1.c.d.Q Q B 7 ",
"e.f.*.g.h.#.^.| a.J 8 ' ' ; ; I ; ; t i i.j.k.l.0.j.$.h 4.Q . 7 ",
"m.Y v 8.n.f z B Q ; , ; 8 , >     l I V #.o.p.w E E ;.m k I } q.",
"@.r._ f 3.[ i j , > > , ,     t = , t W < c w e Z < g j >   4.) ",
"B m g g s.+.t.- ; ; , 8 8 ; C m U W = } s u._ u A d j > > ; I } ",
"} } . v.w.j Q ; 8 8 ' ; ; }  .,.n < W t = x.5.. Q R ; , ; 8 8 R ",
"8 8 D D   R ; ; 8 ; , , > j /.&.j.y.@.Q , ; 8 8 ; ; '.'.8 8 I I ",
"; ; ; , , 8 8 8 ; > > ; ; C z.A.].B.m Q , 8 I I 8 8 ; > > I ; ; ",
", > , , > > , ' ' ' ' ; 8 - i + (  .C I '., , ; ; ; I ; , , - Q ",
"W } ; > 8 8 8 I ; ; ; ' , , Q . . } R '   , > > ; ; ; '   ..V h ",
"u.C.I I l I b.Q } } } Q 8 ' ' , , I '.> ; 8 8 '.'.    ; } 7 ,.$.",
"n @.= , , = } 5.(.-.A d = > I I 8 ' J D 8 8 ; ; ; , '.; B ( E j.",
"Y m Q ; Q j i @.D.E.F.G.w.a.I 8 I . i @.V Q ; > > ; ; ' j u 1.# ",
"g . ; ; } i [ f H.$.;.( U t.4.b.} 7 ,.n I.A = , = j = j C s J.K.",
"C t ; R . |.%.{ L.w 8.;.+ W M.' ) r.N.O.P.Q...C B W i W 5.}.B B ",
"; 8 ' 4...h R.8.5 9.w <.T S.= t C T.U.c G S B * V.^.E.W. .5.} Q ",
"; ; l t . 7 [.X.j.o O H.u A } R Q W T./.@.A i [ & n Y.: ^ @.. Q ",
", , ' > } m / Z.2.`.A._ z W D 8 I - ) d } B @. +y b q .+;.+ A = ",
">   8 ; Q B 7 / ++7.3.[ A @+' , , , I ; ; B 7 f #+4 9.0.$.T * } ",
"I , ; D . B $+s h  . .C.. Q 8 , , Q Q J ' d g ++2.j.o.E n _.(.C ",
"; , d @.W.T.W.|.i B . C D I I > j m 7 | w.C. .T %+X.8.6 f ` B - "};
