/* XPM */
static char * C:\Users\gabha\OneDrive\Bureau\tileset\floor1_xpm[] = {
"32 32 194 2",
"  	c #5A9FDB",
". 	c #5AAFD9",
"+ 	c #66ACE1",
"@ 	c #67AEE1",
"# 	c #67BCE0",
"$ 	c #67BBE0",
"% 	c #5CA2DC",
"& 	c #5DA3DD",
"* 	c #69B1E3",
"= 	c #5EA4DD",
"- 	c #5EA3DD",
"; 	c #68B5E1",
"> 	c #67AEE2",
", 	c #66ADE1",
"' 	c #66BBDF",
") 	c #5BB0D9",
"! 	c #5BA8DA",
"~ 	c #66B4E0",
"{ 	c #5CA1DC",
"] 	c #61A9DF",
"^ 	c #70BAE7",
"/ 	c #73BEE9",
"( 	c #6BB5E5",
"_ 	c #68B8E2",
": 	c #64ACE1",
"< 	c #60A6DE",
"[ 	c #68B0E2",
"} 	c #67ADE1",
"| 	c #5AA7DA",
"1 	c #6DB6E5",
"2 	c #6CBBE3",
"3 	c #6AB2E3",
"4 	c #5DA3DC",
"5 	c #5BA0DC",
"6 	c #5AA0DB",
"7 	c #5CB1DA",
"8 	c #62A9DF",
"9 	c #74BEE9",
"0 	c #74C0E9",
"a 	c #72C8E7",
"b 	c #6FC4E4",
"c 	c #6BB3E4",
"d 	c #68AFE2",
"e 	c #5BA8DB",
"f 	c #5BB0DA",
"g 	c #68BDE0",
"h 	c #64ABE0",
"i 	c #70C6E6",
"j 	c #65ADE1",
"k 	c #5EA5DD",
"l 	c #66BADF",
"m 	c #5BA0DB",
"n 	c #5BA1DC",
"o 	c #67AFE2",
"p 	c #69B0E3",
"q 	c #6CB3E4",
"r 	c #6FB9E6",
"s 	c #68B2E3",
"t 	c #69B3E4",
"u 	c #67B0E2",
"v 	c #63ABE0",
"w 	c #5FB4DC",
"x 	c #6CC1E3",
"y 	c #70C5E5",
"z 	c #6ABAE3",
"A 	c #6BC1E3",
"B 	c #68BEE2",
"C 	c #64B9DF",
"D 	c #60AEDD",
"E 	c #5CAADB",
"F 	c #67B4E0",
"G 	c #5FA6DE",
"H 	c #6BB4E4",
"I 	c #5DB2DA",
"J 	c #61B7DD",
"K 	c #6EB8E6",
"L 	c #64ADE1",
"M 	c #60A7DF",
"N 	c #5EABDC",
"O 	c #5BA9DB",
"P 	c #66B5E0",
"Q 	c #62B7DE",
"R 	c #74BFE9",
"S 	c #60A7DE",
"T 	c #5AB0D9",
"U 	c #6FBAE6",
"V 	c #71BCE8",
"W 	c #63B8DE",
"X 	c #6AC0E2",
"Y 	c #60B5DD",
"Z 	c #5DB3DB",
"` 	c #61A8DF",
" .	c #65AEE1",
"..	c #70BBE7",
"+.	c #6DB7E5",
"@.	c #67BCDF",
"#.	c #66AEE1",
"$.	c #6BC0E2",
"%.	c #71C0E7",
"&.	c #73C9E7",
"*.	c #69BEE1",
"=.	c #5CB2DA",
"-.	c #5FA5DE",
";.	c #5EB3DB",
">.	c #5BB1DA",
",.	c #63AAE0",
"'.	c #6BBBE3",
").	c #6AB3E4",
"!.	c #6BBAE3",
"~.	c #67B5E0",
"{.	c #66B3E0",
"].	c #5AA8DA",
"^.	c #68B1E3",
"/.	c #60B6DD",
"(.	c #71C1E7",
"_.	c #6ABAE4",
":.	c #69BFE1",
"<.	c #6EB7E6",
"[.	c #68B6E1",
"}.	c #5DB2DB",
"|.	c #5FADDD",
"1.	c #66AEE2",
"2.	c #68B7E2",
"3.	c #71BBE8",
"4.	c #73C8E7",
"5.	c #64BADF",
"6.	c #69B7E2",
"7.	c #67ADE2",
"8.	c #6DC2E3",
"9.	c #69B0E2",
"0.	c #68BCE0",
"a.	c #6AB2E4",
"b.	c #6CB5E5",
"c.	c #67B1E3",
"d.	c #69B9E3",
"e.	c #66B5E1",
"f.	c #62AAE0",
"g.	c #63B9DF",
"h.	c #66BCE0",
"i.	c #70C5E6",
"j.	c #65BBE0",
"k.	c #62B7DD",
"l.	c #6CB7E5",
"m.	c #69BFE3",
"n.	c #68BDE1",
"o.	c #5DABDC",
"p.	c #66AFE2",
"q.	c #73BEE8",
"r.	c #60B5DC",
"s.	c #6AB4E4",
"t.	c #6CC1E4",
"u.	c #6AC0E3",
"v.	c #6EC3E4",
"w.	c #6DB5E5",
"x.	c #72BDE8",
"y.	c #6FB8E6",
"z.	c #6AB9E3",
"A.	c #6EBEE5",
"B.	c #61B6DD",
"C.	c #72BCE8",
"D.	c #61AFDE",
"E.	c #69BDE1",
"F.	c #6FBDE5",
"G.	c #63B2DF",
"H.	c #62B0DF",
"I.	c #6AB3E3",
"J.	c #6EC4E4",
"K.	c #5DA2DC",
"L.	c #6CBAE3",
"M.	c #6ABFE2",
"N.	c #66B4E1",
"O.	c #63B1DF",
"P.	c #61A7DF",
"Q.	c #64B3E0",
"R.	c #67BDE1",
"S.	c #6EBDE5",
"T.	c #5CA9DB",
"U.	c #69BEE0",
"V.	c #6DC1E3",
"W.	c #62B8DE",
"X.	c #68AEE2",
"Y.	c #71BBE7",
"Z.	c #71C7E6",
"`.	c #6EB7E5",
" +	c #70C0E6",
".+	c #73C3E8",
"++	c #6BB6E5",
"@+	c #73BFE9",
"#+	c #69B8E3",
"$+	c #6CBBE4",
"%+	c #5FB5DC",
"&+	c #6ABFE1",
"*+	c #6BBFE2",
"=+	c #67B6E1",
"  . + @ # $ % & * = - ; > @ , ' ' ) ! ~ . { = ] ^ / ( _ : < [ } ",
"| | | . } { = < ] 1 2 3 4 5 6 . , , + +   7 = 8 ^ 9 0 a b c d e ",
"      6 f g < h ^ i j ] k % ) l   m n o > # p q r s t u v w 7 } ",
",     , > p x y z A B C D E F . m % G H = E I w J K L v M N O P ",
"  , , m n = Q u R 0 t L S [ 5 T f G U V W & { 4 k X Y w N % 5 ) ",
"e , + l f Z `  .s t ..+.3 g @.#.$ $.%.&.L = 5 5 { d g d o n { 7 ",
"*.f . , 5 =.-.8 : L +.M ;.>.m 6 5 = ,.K '.% m 6 @ 5 f 5 5 [ ).!.",
"W & m , } f I * ).$.w ;.% 5     6 > [ ;.g ~.{.,   . . ].n G U ^.",
": - m + , @ > 7 E [ % n f . . . ' ' T ) 6     . l       7 /.(._.",
"` % 6   ,   ].m 5 > @ m 6 , ' ,         . . | , , + +   5 :.+.<.",
"[.@ + +     . .       , + . ) n o > , , , , ' '       , , f }.N ",
"6 ~       .     . | {.| | m E |.M = >         . , , + | |   m m ",
"  ' ' {.{.| . . | | ' ' . f G 1.2.+.[ m   | . | | . ' ' . .     ",
"{.| m m 6 l       ,     , $ c 3.4.5.6.F . . | |       ,   | | + ",
"@.> n { n # #.+ + + , , + 7.:.8.K H % 6 } n 7 n m + , + + , ' ' ",
"{ d p = 9.0.f ! | ,     . . n }.- d 5 5 9.$.x a.[ o 7.+     6 e ",
"= < b.1 '.|.4 5 6 ' . .       ) m 6 #.o ` c.d.e.f.` * n     ) 7 ",
"D g.h.i.j.k.k { m ' , + +     . ' ' 6 [ : ( l.m.n.V +.o.! . f o.",
"] p.q.R s : r.I $ ,       , ' ~ . | ].[ v s.t.d.d.u.v.p m m O = ",
"w...R R x.y.H * g # T .   ' |       . # z.A.o : : j ` [.#.m { 6.",
"B.j C.t u g.B.B.D.k > , '           , , # E.p = = = d } l @.# ;.",
"w k.C F.G.D.H.e.^.v & 5 o # # '   , {.|   m @.@.F F . . m { 4 9.",
"*.3 ).c I.-.8 ^._.J.* [ a.M = e ~ . . . . . .   , ,   ! % < ` G ",
";.% K.4 [ [ 3 1 <.L.E.M.N.2.O.o.T ~ , ,   . + +     , > M.r V +.",
"N n 5 5 > 5 { & = =.7 P.3./ Q.Z !     + + ~ , , , , , { M R.u.S.",
"[ f 5 { d { 5 ! ! m 5 = ,.<.H g ' l } > d d T.f . ,   5 = O.5.` ",
"5 > U.$.V.Y }.f 6   6 n & *.g 5 5 7 *.!.V.W.] k n l . . f }.N % ",
"6 X.b.2.s.Y.v |.O . . l ' m 6 m 4 M : Z.4.x.s v & m + ~ ~ m m 6 ",
"#.[ <.A l.( x.`.[ #.' '       f r. +.+u.++@+@+y.3 d { n f #., , ",
", 4 g.u.l.++( y.= m | l + , , # H ^.( #+c.o 1.1 3 = = - 7 f ) + ",
"' O G j R.u 1.$+}.f ) . .   , # = v j +.$.M.a.).M 8 Q D.-.4 e . ",
"~ , o = G %+&+*.% { n 5 ) . {.~ n & = [ O E ;.*+C h.=+j 8 k { m "};
