/* XPM */
static char * C:\Users\gabha\OneDrive\Bureau\tileset\left2_xpm[] = {
"32 32 38 1",
" 	c None",
".	c #4D3B39",
"+	c #8F7772",
"@	c #705654",
"#	c #B7A099",
"$	c #760000",
"%	c #AD0000",
"&	c #FF2627",
"*	c #534721",
"=	c #EEBE93",
"-	c #FFE1AF",
";	c #D9D9DD",
">	c #2E1E22",
",	c #D9D9D9",
"'	c #928A8C",
")	c #F2F2F2",
"!	c #9D704C",
"~	c #D7906E",
"{	c #5C2E00",
"]	c #FFFFFF",
"^	c #964F00",
"/	c #767678",
"(	c #B7B7BB",
"_	c #C79D00",
":	c #E3B700",
"<	c #979799",
"[	c #FFD600",
"}	c #286E9F",
"|	c #288DCB",
"1	c #444444",
"2	c #565657",
"3	c #B89D92",
"4	c #858587",
"5	c #8B5E4A",
"6	c #A77E5D",
"7	c #6D6D6E",
"8	c #FFFC00",
"9	c #77584A",
"                                ",
"          ....   ....           ",
"           .+@...@+@......      ",
"       ......++@++@.#++@.       ",
"        .@+#@@++#@+#+@@...      ",
"       ...@+#++#+++++++++@.     ",
"      .@++++++++++++#++@..      ",
"     .@+@+#+++#++++@+#+++@.     ",
"    ....+#++$+##@+#+@+@@++@.    ",
"      .+@#+@%@+#@+#+%@+$%.+@.   ",
"     .@@.++$&%++%+++&%@%&$..    ",
"     .@.*@+%&&@+&@+@&%$$%$@.    ",
"      . *=@=---@-@@@@+@@&%@@.   ",
"        *==-***--+@@@++@&&%@.   ",
"        *=--;>,--++=-+++&&&..   ",
"        *=--'>)--+=!-+++%&&%.   ",
"        *~--{{]--+-!=@++%&%%$   ",
"        *!=-^^---+=~*@+@@%%%%   ",
"         *~=-----=~~@@@@@%%%%$  ",
"          *!~~===~~!@.@.@.%$$$  ",
"           *******//./. . $$$$  ",
"           /(;;]]];(((/    $$   ",
"          *_:]]];;;(<;;//       ",
"           *[}];|1(<//;](/      ",
"           1[}|||}*23/(;](/     ",
"           14555555*66/(];(/    ",
"           12}||||}*566/]];/    ",
"           *[7777777*55/;]](/   ",
"           *3888[[[__**/(]](/   ",
"          *66559***55*///](/    ",
"          *6669*  ***  //;/     ",
"           ****          /      "};
