/* XPM */
static char * C:\Users\gabha\OneDrive\Bureau\tileset\up_xpm[] = {
"32 32 19 1",
" 	c None",
".	c #4D3B39",
"+	c #705654",
"@	c #8F7772",
"#	c #B7A099",
"$	c #760000",
"%	c #AD0000",
"&	c #FF2627",
"*	c #444444",
"=	c #767678",
"-	c #858587",
";	c #B7B7BB",
">	c #D9D9DD",
",	c #534721",
"'	c #FFFFFF",
")	c #9F8781",
"!	c #8B5E4A",
"~	c #A77E5D",
"{	c #77584A",
"                                ",
"            ....   ....         ",
"       ......+@#...+@.          ",
"        ..+@@.+@#+#@+.....      ",
"      ...+@@#@@+@@@+.+@+.       ",
"     .+@@@.+@#@@@@@##@+...      ",
"      ..+@@@@@@@++@@@#@@@+.     ",
"     .+@@+@@@#@@@@+@@@@@+.+.    ",
"    .+@@+#@@##@@#@@#@@@#@+...   ",
"   .+@.+#@+@#@@@##+@#@@@#@.     ",
"    ..++@@+@@@+@#@+@#+@+@@+.    ",
"     .@+@++@@+++@@+@@+@@+@@.    ",
"    .@+++$+@+$%%@@$+@+@@$++@.   ",
"    .+.+$$++$%$&@+$$+$+@$+...   ",
"    ...++$$+%&$&+%$%$$$+++. .   ",
"    . .++++$%%%$%$%%%$++++.     ",
"      .++.+++%&%+%&%+++.++.     ",
"      .+..++%&&++&&%+++..+.     ",
"       .*.++&&&++&&%+++.*.      ",
"       *==.+&&%.&&&+.+.==*      ",
"      *-;=;&&&.;&&&.;.;;=*      ",
"      *=-=>&&&>>&&&>;;>>=*,     ",
"      ,*=;>&&&''&&&>>;>'>=),    ",
"      ,!=>'&&>''&%%''>>''>=!,   ",
"       ,=>''>''''''''''>''>=,   ",
"        =>>'>'''''''''''''';,   ",
"        =;>'>''''''''''''''>=   ",
"        =;>>>>''''''''>'>'''=   ",
"        =;;>;>''>''''>;'>>''=   ",
"        =;;>;>''>>''>>;;>;==    ",
"         ==;=;>'>>>>>;=;==      ",
"           =~~~{=;;;====        "};
