/* XPM */
static char * C:\Users\gabha\OneDrive\Bureau\tileset\up1_xpm[] = {
"32 32 18 1",
" 	c None",
".	c #4D3B39",
"+	c #705654",
"@	c #8F7772",
"#	c #B7A099",
"$	c #760000",
"%	c #AD0000",
"&	c #FF2627",
"*	c #444444",
"=	c #767678",
"-	c #979799",
";	c #B7B7BB",
">	c #D9D9DD",
",	c #323234",
"'	c #FFFFFF",
")	c #534721",
"!	c #9F8781",
"~	c #8B5E4A",
"            ....   ....         ",
"       ......+@#...+@.          ",
"        ..+@@.+@#+#@+.....      ",
"      ...+@@#@@+@@@+.+@+.       ",
"     .+@@@.+@#@@@@@##@+...      ",
"      ..+@@@@@@@++@@@#@@@+.     ",
"     .+@@+@@@#@@@@+@@@@@+.+.    ",
"    .+@@+#@@##@@#@@#@@@#@+...   ",
"   .+@.+#@+@#@@@##+@#@@@#@.     ",
"    ..++@@+@@@+@#@+@#+@+@@+.    ",
"     .@+@++@@+++@@+@@+@@+@@.    ",
"    .@+++$+@+$%%@@$+@+@@$++@.   ",
"    .+.+$$++$%$&@+$$+$+@$+...   ",
"    ...++$$+%&$&+%$%$$$+++. .   ",
"    . .++++$%%%$%$%%%$++++.     ",
"      .++.+++%&%+%&%+++.++.     ",
"      .+..+++%&&+&&%+++..+.     ",
"       .*.+++%&&+&&%+++.*.      ",
"       *==.+.&&&.&&&.+.==*      ",
"      *-;=;.;&&&;&&&;.;=;-*     ",
"      *==;>;;&&&>&&&;;>;==*     ",
"      ,*=;>;>&&&'&&>>;>;=*,     ",
"      )!=;>;>'&&'&&'>;>;=!)     ",
"     )~=;>'>'''''''''>'>;=~)    ",
"     )~=;>'''''''''''''>;=~)    ",
"     )~=;''>'''''''''>'';=~)    ",
"      =;>'>;''''''''';>'>;=     ",
"      =;>'>;>'''''''>;>'>;=     ",
"      =;>>;;>'''''''>;;>>;=     ",
"       ==;;=>>'''''>>=;;==      ",
"         ====;;;;;;;====        ",
"            )))   )))           "};
