/* XPM */
static char * C:\Users\gabha\OneDrive\Bureau\tileset\wall_xpm[] = {
"32 32 17 1",
" 	c #404A4A",
".	c #4D4D4D",
"+	c #424242",
"@	c #3A3A3A",
"#	c #313131",
"$	c #2B2B2B",
"%	c #292929",
"&	c #333333",
"*	c #212121",
"=	c #0B0B0B",
"-	c #1B1B1B",
";	c #161616",
">	c #000000",
",	c #212621",
"'	c #1A1A1A",
")	c #050505",
"!	c #5A5A5A",
" ..+ + .   . ........       +.. ",
".@@#$$$$$%$$$$$#&###$$$$**$$%$$=",
" ##$$$%$%%$$$$$&#$$&#$$$$$$%@#$=",
".$$$$#$$%$#$$%%$$$$$$%%$$$$$$$$=",
".$$$*-******-*-;-*-***-***-*$%$;",
" $$$*>;,;;,;;;>;,;;->;;=;,;#$$$=",
" #$%-;,;,,,',,,,,;;;,,,,,;,&$$$=",
" $%$*>=,>=,>)-)>,>>,>),);-=#$$$;",
"+$$$-=;;;;;);,;;'>;,>;*);,;#$%$=",
" #$$*;-,;,,,,,,,;,,,=,;,;;,&&$$=",
" $$$*>>;>;;>=;=>,>>;);,>),>+##$=",
" $##*>;,>;,=;,);,=;*=;,;;';@#&$=",
" ###*-*,-,,-;';;,;;;;,;-,;, #$$=",
".#$$*>=->>;=;;;),>>,>>,;;,>.$$$=",
" $$$*;;,>;,);->;->;,=;;>;;; $$$=",
".#$$*,,,,,;;,-,;;;;,,'-;,,,.#$%=",
".$$$*>=,>;;;>->=-)=->>,=;,>+$$$;",
"!&#$*;;,);,;;,>;,);'>;,=;,;@$$$;",
".$#&*,,,-,;,,-;,,;;,;,,,',,@$$$;",
" $$$*>>=)>;>>=)););-)>,>),=@$$*=",
"+$$$*>;,;;->;,>;,);;>;->;,;+$$$=",
"+$$$-,*,;;;,,;-;;;',,;,,;,-+$$$=",
".%$$*>=,>>,=;,)>;>),>=;;;,=@$$&-",
" $$&*;;,;;->;;>;,>;-=;->;-;@%$$=",
"@$$$*,,-,-,;-,,,,,,-,,;,;,, $$$=",
"@$$$*=>;==;;>,>>*=;;)=,>>;>@$$$=",
".$#$*>;;;;->;,=;,>;,;;,>;-=@$$$=",
" $$$*@@@@@@+  @@@@+++@+$&&&&*%*=",
"&$$$$$$$%$$&#$$$$&#$#$$$%$$%*$$=",
"@$$$$$$$*$$@$$$$$$$$$$$$$$$$$#$=",
"+$$$$$$$$$%&$$$$$$$$$$$$$$$$$#$=",
".=========;-=============;======"};
